<svg width="45" height="44" viewBox="0 0 45 44" fill="none" xmlns="http://www.w3.org/2000/svg">
<rect x="0.80332" y="0.65" width="42.7" height="42.7" rx="21.35" fill="#1B1B1B"/>
<rect x="0.80332" y="0.65" width="42.7" height="42.7" rx="21.35" stroke="#262626" stroke-width="1.3"/>
<path d="M8.40332 16.4415C8.40332 14.9873 9.58214 13.8085 11.0363 13.8085C12.4905 13.8085 13.6693 14.9873 13.6693 16.4415C13.6693 17.8956 12.4905 19.0745 11.0363 19.0745C9.58214 19.0745 8.40332 17.8956 8.40332 16.4415Z" fill="#F35034"/>
<path d="M8.40332 22C8.40332 20.5458 9.58214 19.367 11.0363 19.367C12.4905 19.367 13.6693 20.5458 13.6693 22C13.6693 23.4542 12.4905 24.633 11.0363 24.633C9.58214 24.633 8.40332 23.4542 8.40332 22Z" fill="#F35034"/>
<path d="M8.40332 27.5585C8.40332 26.1044 9.58214 24.9255 11.0363 24.9255C12.4905 24.9255 13.6693 26.1044 13.6693 27.5585C13.6693 29.0127 12.4905 30.1915 11.0363 30.1915C9.58214 30.1915 8.40332 29.0127 8.40332 27.5585Z" fill="#F35034"/>
<path d="M13.9618 10.883C13.9618 9.42882 15.1407 8.25 16.5948 8.25C18.049 8.25 19.2278 9.42882 19.2278 10.883C19.2278 12.3371 18.049 13.516 16.5948 13.516C15.1407 13.516 13.9618 12.3371 13.9618 10.883Z" fill="#F35034"/>
<path d="M13.9618 16.4415C13.9618 14.9873 15.1407 13.8085 16.5948 13.8085C18.049 13.8085 19.2278 14.9873 19.2278 16.4415C19.2278 17.8956 18.049 19.0745 16.5948 19.0745C15.1407 19.0745 13.9618 17.8956 13.9618 16.4415Z" fill="#F35034"/>
<path d="M13.9618 22C13.9618 20.5458 15.1407 19.367 16.5948 19.367C18.049 19.367 19.2278 20.5458 19.2278 22C19.2278 23.4542 18.049 24.633 16.5948 24.633C15.1407 24.633 13.9618 23.4542 13.9618 22Z" fill="#F35034"/>
<path d="M13.9618 27.5585C13.9618 26.1044 15.1407 24.9255 16.5948 24.9255C18.049 24.9255 19.2278 26.1044 19.2278 27.5585C19.2278 29.0127 18.049 30.1915 16.5948 30.1915C15.1407 30.1915 13.9618 29.0127 13.9618 27.5585Z" fill="#F35034"/>
<path d="M13.9618 33.117C13.9618 31.6629 15.1407 30.484 16.5948 30.484C18.049 30.484 19.2278 31.6629 19.2278 33.117C19.2278 34.5712 18.049 35.75 16.5948 35.75C15.1407 35.75 13.9618 34.5712 13.9618 33.117Z" fill="#F35034"/>
<path d="M19.5203 10.883C19.5203 9.42882 20.6992 8.25 22.1533 8.25C23.6075 8.25 24.7863 9.42882 24.7863 10.883C24.7863 12.3371 23.6075 13.516 22.1533 13.516C20.6992 13.516 19.5203 12.3371 19.5203 10.883Z" fill="#F35034"/>
<path d="M19.5203 16.4415C19.5203 14.9873 20.6992 13.8085 22.1533 13.8085C23.6075 13.8085 24.7863 14.9873 24.7863 16.4415C24.7863 17.8956 23.6075 19.0745 22.1533 19.0745C20.6992 19.0745 19.5203 17.8956 19.5203 16.4415Z" fill="#F35034"/>
<path d="M19.5203 22C19.5203 20.5458 20.6992 19.367 22.1533 19.367C23.6075 19.367 24.7863 20.5458 24.7863 22C24.7863 23.4542 23.6075 24.633 22.1533 24.633C20.6992 24.633 19.5203 23.4542 19.5203 22Z" fill="#F35034"/>
<path d="M19.5203 27.5585C19.5203 26.1044 20.6992 24.9255 22.1533 24.9255C23.6075 24.9255 24.7863 26.1044 24.7863 27.5585C24.7863 29.0127 23.6075 30.1915 22.1533 30.1915C20.6992 30.1915 19.5203 29.0127 19.5203 27.5585Z" fill="#F35034"/>
<path d="M19.5203 33.117C19.5203 31.6629 20.6992 30.484 22.1533 30.484C23.6075 30.484 24.7863 31.6629 24.7863 33.117C24.7863 34.5712 23.6075 35.75 22.1533 35.75C20.6992 35.75 19.5203 34.5712 19.5203 33.117Z" fill="#F35034"/>
<path d="M25.0789 10.883C25.0789 9.42882 26.2577 8.25 27.7118 8.25C29.166 8.25 30.3448 9.42882 30.3448 10.883C30.3448 12.3371 29.166 13.516 27.7118 13.516C26.2577 13.516 25.0789 12.3371 25.0789 10.883Z" fill="#F35034"/>
<path d="M25.0789 16.4415C25.0789 14.9873 26.2577 13.8085 27.7118 13.8085C29.166 13.8085 30.3448 14.9873 30.3448 16.4415C30.3448 17.8956 29.166 19.0745 27.7118 19.0745C26.2577 19.0745 25.0789 17.8956 25.0789 16.4415Z" fill="#F35034"/>
<path d="M25.0789 22C25.0789 20.5458 26.2577 19.367 27.7118 19.367C29.166 19.367 30.3448 20.5458 30.3448 22C30.3448 23.4542 29.166 24.633 27.7118 24.633C26.2577 24.633 25.0789 23.4542 25.0789 22Z" fill="#F35034"/>
<path d="M25.0789 27.5585C25.0789 26.1044 26.2577 24.9255 27.7118 24.9255C29.166 24.9255 30.3448 26.1044 30.3448 27.5585C30.3448 29.0127 29.166 30.1915 27.7118 30.1915C26.2577 30.1915 25.0789 29.0127 25.0789 27.5585Z" fill="#F35034"/>
<path d="M25.0789 33.117C25.0789 31.6629 26.2577 30.484 27.7118 30.484C29.166 30.484 30.3448 31.6629 30.3448 33.117C30.3448 34.5712 29.166 35.75 27.7118 35.75C26.2577 35.75 25.0789 34.5712 25.0789 33.117Z" fill="#F35034"/>
<path d="M30.6374 16.4415C30.6374 14.9873 31.8162 13.8085 33.2703 13.8085C34.7245 13.8085 35.9033 14.9873 35.9033 16.4415C35.9033 17.8956 34.7245 19.0745 33.2703 19.0745C31.8162 19.0745 30.6374 17.8956 30.6374 16.4415Z" fill="#F35034"/>
<path d="M30.6374 22C30.6374 20.5458 31.8162 19.367 33.2703 19.367C34.7245 19.367 35.9033 20.5458 35.9033 22C35.9033 23.4542 34.7245 24.633 33.2703 24.633C31.8162 24.633 30.6374 23.4542 30.6374 22Z" fill="#F35034"/>
<path d="M30.6374 27.5585C30.6374 26.1044 31.8162 24.9255 33.2703 24.9255C34.7245 24.9255 35.9033 26.1044 35.9033 27.5585C35.9033 29.0127 34.7245 30.1915 33.2703 30.1915C31.8162 30.1915 30.6374 29.0127 30.6374 27.5585Z" fill="#F35034"/>
</svg>
