<svg width="14" height="14" viewBox="0 0 14 14" fill="none" xmlns="http://www.w3.org/2000/svg">
<path d="M10.0392 7.1428H7.29228V9.88972C7.29228 10.0354 7.2344 10.1752 7.13137 10.2782C7.02834 10.3812 6.8886 10.4391 6.7429 10.4391C6.59719 10.4391 6.45745 10.3812 6.35442 10.2782C6.25139 10.1752 6.19351 10.0354 6.19351 9.88972V7.1428H3.4466C3.30089 7.1428 3.16116 7.08492 3.05813 6.98189C2.9551 6.87886 2.89722 6.73913 2.89722 6.59342C2.89722 6.44772 2.9551 6.30798 3.05813 6.20495C3.16116 6.10192 3.30089 6.04404 3.4466 6.04404H6.19351V3.29712C6.19351 3.15142 6.25139 3.01168 6.35442 2.90865C6.45745 2.80562 6.59719 2.74774 6.7429 2.74774C6.8886 2.74774 7.02834 2.80562 7.13137 2.90865C7.2344 3.01168 7.29228 3.15142 7.29228 3.29712V6.04404H10.0392C10.1849 6.04404 10.3246 6.10192 10.4277 6.20495C10.5307 6.30798 10.5886 6.44772 10.5886 6.59342C10.5886 6.73913 10.5307 6.87886 10.4277 6.98189C10.3246 7.08492 10.1849 7.1428 10.0392 7.1428Z" fill="white"/>
</svg>
